<mxfile host="app.diagrams.net" modified="2021-06-24T05:56:59.298Z" agent="5.0 (X11; Linux x86_64) AppleWebKit/537.36 (KHTML, like Gecko) Chrome/91.0.4472.106 Safari/537.36" etag="X_GoA3-gHtCrUkxMoYtc" version="14.8.0" type="github">
  <diagram id="4_v2aBuhESPP2Kse0YYt" name="Page-1">
    <mxGraphModel dx="1030" dy="598" grid="1" gridSize="10" guides="1" tooltips="1" connect="1" arrows="1" fold="1" page="1" pageScale="1" pageWidth="827" pageHeight="1169" math="0" shadow="0">
      <root>
        <mxCell id="0" />
        <mxCell id="1" parent="0" />
        <mxCell id="EJkfiaquxVvLyC4--Yfr-1" value="HOPPSCOTCH&lt;br&gt;BACKEND" style="whiteSpace=wrap;html=1;aspect=fixed;fillColor=#d5e8d4;strokeColor=#82b366;" vertex="1" parent="1">
          <mxGeometry x="240" y="400" width="390" height="390" as="geometry" />
        </mxCell>
        <mxCell id="EJkfiaquxVvLyC4--Yfr-2" value="PROXY" style="rounded=0;whiteSpace=wrap;html=1;fillColor=#dae8fc;strokeColor=#6c8ebf;" vertex="1" parent="1">
          <mxGeometry x="250" y="410" width="120" height="370" as="geometry" />
        </mxCell>
      </root>
    </mxGraphModel>
  </diagram>
</mxfile>
